<svg xmlns="http://www.w3.org/2000/svg" viewBox="0 0 512 512">
  <defs>
    <linearGradient id="bg" x1="64" y1="48" x2="448" y2="464" gradientUnits="userSpaceOnUse">
      <stop stop-color="#fff8fc"/>
      <stop offset="1" stop-color="#f5eaff"/>
    </linearGradient>
    <linearGradient id="heart" x1="154" y1="136" x2="360" y2="370" gradientUnits="userSpaceOnUse">
      <stop stop-color="#f17cab"/>
      <stop offset="1" stop-color="#be74d4"/>
    </linearGradient>
  </defs>
  <rect width="512" height="512" rx="118" fill="url(#bg)"/>
  <rect x="72" y="72" width="368" height="368" rx="92" fill="#fff" stroke="#efd9e4" stroke-width="12"/>
  <g fill="url(#heart)">
    <circle cx="176" cy="176" r="45"/><circle cx="256" cy="176" r="45"/><circle cx="336" cy="176" r="45"/>
    <circle cx="136" cy="256" r="45"/><circle cx="216" cy="256" r="45"/><circle cx="296" cy="256" r="45"/><circle cx="376" cy="256" r="45"/>
    <circle cx="176" cy="336" r="45"/><circle cx="256" cy="336" r="45"/><circle cx="336" cy="336" r="45"/>
    <circle cx="256" cy="416" r="31"/>
  </g>
  <g fill="#fff" opacity=".62">
    <circle cx="164" cy="162" r="10"/><circle cx="244" cy="162" r="10"/><circle cx="324" cy="162" r="10"/>
    <circle cx="124" cy="242" r="10"/><circle cx="204" cy="242" r="10"/><circle cx="284" cy="242" r="10"/><circle cx="364" cy="242" r="10"/>
  </g>
</svg>
